# xmcd CD database file
#
# Track frame offsets:
#	150
#	13992
#	28445
#	38817
#	54747
#	67082
#	77310
#	94670
#	106467
#	118147
#	128485
#	137882
#	154007
#	163550
#	174305
#	185147
#	195370
#	206190
#
# Disc length: 2885 seconds
#
# Revision: 0
# Processed by: cddbd v1.5.2PL0 Copyright (c) Steve Scherf et al.
# Submitted via: CDex 1.51
#
DISCID=fe0b4312
DTITLE=Various Artist - Compact Country - Disc 2
DYEAR=1990
DGENRE=Country
TTITLE0=Dave Dudley - Phantom 309
TTITLE1=Dolly Parton and willie Nelson - Everything is Beautiful
TTITLE2=Gene Autry - San Antonio Rose
TTITLE3=Kris Kristofferson - Why Me (Lord)
TTITLE4=B.J. Thomas - Hooked on a Feeling
TTITLE5=Roy Orbison - Running Scared
TTITLE6=Michael Jones - You Gave Me a Mountain
TTITLE7=Don Gibson - Oh Lonesome Me
TTITLE8=Floyd Cramer - Fancy Pants
TTITLE9=Faron Young - Hello Walls
TTITLE10=George Jones - I Have 5 Dollars and It's Saturday Night
TTITLE11=Gary Puckett - Crying
TTITLE12=Lynn Anderson - Snowbird
TTITLE13=Billy J. Kramer - Gotta Travel On
TTITLE14=Col Joye - China Doll-Rosemarie
TTITLE15=Jimmie Rogers - Kisses Sweeter Than Wine
TTITLE16=Don Williams - Always Something There to Remind Me
TTITLE17=Boots Randolf - Walk Right In
EXTD=YEAR: 1990
EXTT0=
EXTT1=
EXTT2=
EXTT3=
EXTT4=
EXTT5=
EXTT6=
EXTT7=
EXTT8=
EXTT9=
EXTT10=
EXTT11=
EXTT12=
EXTT13=
EXTT14=
EXTT15=
EXTT16=
EXTT17=
PLAYORDER=
